<svg width="221" height="200" viewBox="0 0 221 200" fill="none" xmlns="http://www.w3.org/2000/svg">
<path d="M147 111L129.291 145.85L129.805 106.762L97.9289 129.39L116.55 95.0184L77.8088 100.241L110.27 78.4599L73.5395 65.0803L112.404 60.8796L86.0992 31.9632L122.464 46.3051L112.61 8.47625L138.145 38.0752L147 0L155.855 38.0752L181.39 8.47625L171.536 46.3051L207.901 31.9632L181.596 60.8796L220.46 65.0803L183.73 78.4599L216.191 100.241L177.45 95.0184L196.071 129.39L164.195 106.762L164.709 145.85L147 111Z" fill="#F7CC47"/>
<rect y="58" width="166" height="142" rx="6" fill="white"/>
<circle cx="35" cy="92" r="20" fill="#F5DED1"/>
<rect x="15" y="137" width="75" height="14" rx="2" fill="#F5DED1"/>
<rect x="15" y="159" width="126" height="6" rx="3" fill="#F5DED1"/>
<rect x="15" y="171" width="105" height="6" rx="3" fill="#F5DED1"/>
</svg>
